<svg xmlns="http://www.w3.org/2000/svg" viewBox="0 0 494.13 494.13"><defs><style>.cls-1{fill:#fff;}.cls-2,.cls-3{fill:none;}.cls-3{stroke:#c43260;stroke-miterlimit:10;stroke-width:15.66px;}.cls-4{fill:#c43260;}</style></defs><title>logo_1</title><g id="Calque_2" data-name="Calque 2"><g id="Calque_1-2" data-name="Calque 1"><path class="cls-1" d="M247.06,7.83c132.13,0,239.23,107.11,239.23,239.23S379.19,486.29,247.06,486.29,7.83,379.19,7.83,247.06,114.94,7.83,247.06,7.83"/><path class="cls-2" d="M247.06,9.1c132.21,0,239.39,107.18,239.39,239.39S379.27,487.87,247.06,487.87,7.68,380.7,7.68,248.49,114.85,9.1,247.06,9.1"/><path class="cls-3" d="M247.06,7.83c132.13,0,239.23,107.11,239.23,239.23S379.19,486.29,247.06,486.29,7.83,379.19,7.83,247.06,114.94,7.83,247.06,7.83"/><path class="cls-4" d="M486.36,246.83a240.26,240.26,0,0,0-3.94-43.37c-101.79,160.45-318.06,80-467.53,101,25.77,104.31,120,181.65,232.24,181.65C379.25,486.06,486.36,379,486.36,246.83Z"/><path class="cls-4" d="M390.85,200.27l.29-22.9-22.81,7s2.42,10.9,3.37,14.56c.87,3.36,3.15,5.45,6.52,4.78,4.48-.9,12.63-3.4,12.63-3.4m-6.44-131-28.29,5.89,15.57,91.31,13.39-3.84ZM352.14,205.45l-6.51-27.66a19.42,19.42,0,0,1-6.46,1.74c-7.15.63-11.48-2.11-12.15-9.84l-2.57-29.36,21.44-1.87-6.67-27.26L322,112.71l-2.85-32.65-33.73,8.4,2.39,27.24-12,1,2.41,27.63,12-1.05,3.05,34.78c2.31,26.46,18.67,33.2,40.69,31.28,8.31-.73,12.88-1.91,18.15-3.93M237.87,189.76c-4,3.65-7.3,5.5-11,5.82-4.25.37-7.59-2.06-8.06-7.47-.68-7.73,3.69-13.56,17.32-17.87Zm36.51,23.46-5.51-63c-2.25-25.69-16.9-33-44.52-30.56-16,1.41-28.73,5.44-39,10.62l6.05,24.77c9.67-5.13,19.11-8.48,29.35-9.38,9.28-.81,13.25,2.34,13.86,9.3l.06.77c-36,6.27-51.12,18.69-49.21,40.52,1.56,17.77,13.13,25.51,27.62,24.24,11.79-1,20-7,27.42-16l2.94,11.42ZM141.63,168.79l-23.37,2c-1-13.93,2.81-21.27,9.76-21.88s12,6,13.61,19.84m33,5.48c-2.47-28.21-17.34-49.1-47.48-46.46-26.65,2.33-44.51,23-41.75,54.46,2.94,33.61,25.15,47.24,55.48,44.58a76.38,76.38,0,0,0,37.19-13.17L173,191.15c-10.15,6.34-20.3,10.54-29.57,11.35-11.21,1-20.06-2.33-23-14.15l54.48-4.76a57.18,57.18,0,0,0-.23-9.32"/><path class="cls-4" d="M369.45,261.92a30.59,30.59,0,0,0,13.45,1.74c12.8-1.12,18.16-8.27,17.47-16.08-.57-6.57-4.74-10.53-13.24-12.84-6.28-1.75-9-2.83-9.22-5.81-.2-2.36,1.82-4.69,6.39-5.09a21.86,21.86,0,0,1,9.86,1.37l1.63-8.64a27.49,27.49,0,0,0-12.1-1.32c-10.92,1-17.12,7.57-16.42,15.51.59,6.77,6.1,10.61,14.09,12.7,5.76,1.45,8.11,2.91,8.37,5.82s-2.12,5.27-7,5.69a26.88,26.88,0,0,1-11.93-1.88Zm-33.27,5.13,29-2.54-.78-8.84-18.51,1.62-3.3-37.75-10.52.92Zm-11.72-27.46-17.15,1.5-.84-9.67,18.18-1.59-.76-8.65-28.69,2.51,4.08,46.59,29.65-2.59-.76-8.64L309,260.72l-1-11.06,17.15-1.5ZM259.89,271.5a30.75,30.75,0,0,0,13.45,1.75c12.8-1.12,18.16-8.27,17.48-16.09-.58-6.56-4.75-10.53-13.25-12.84-6.27-1.75-8.95-2.83-9.21-5.81-.21-2.36,1.82-4.69,6.39-5.09a21.89,21.89,0,0,1,9.86,1.37l1.62-8.64a27.51,27.51,0,0,0-12.1-1.31c-10.92.95-17.11,7.56-16.41,15.5.59,6.77,6.08,10.62,14.07,12.7,5.77,1.46,8.13,2.91,8.38,5.82s-2.12,5.27-6.95,5.69a26.72,26.72,0,0,1-11.93-1.87Zm-37.31,3.27A30.55,30.55,0,0,0,236,276.51c12.78-1.12,18.15-8.27,17.46-16.08-.57-6.57-4.74-10.53-13.25-12.84-6.27-1.75-8.94-2.83-9.2-5.81-.21-2.36,1.82-4.69,6.38-5.09a22,22,0,0,1,9.88,1.37l1.6-8.64a27.43,27.43,0,0,0-12.1-1.32c-10.91,1-17.09,7.57-16.39,15.51.59,6.76,6.07,10.62,14.06,12.7,5.77,1.45,8.13,2.91,8.38,5.82s-2.12,5.27-7,5.69A26.81,26.81,0,0,1,224,265.94Zm-49.23-40.42,2.27,26c1.29,14.8,8.71,20.77,20.47,19.74,12.16-1.07,18.81-8.54,17.56-22.92L211.36,231l-10.5.92,2.34,26.76c.73,8.29-2,12.42-7.52,12.91-5.32.46-8.78-3.33-9.49-11.42l-2.34-26.76Zm-29.52,10.53a20.84,20.84,0,0,1,4.73-.77c4.85-.42,7.93,1.54,8.3,5.76.36,4.07-2.51,7-7.76,7.43l-4.15.37Zm-7.05,39.62,10.44-.92-1.61-18.31,3.11-.28c4.37-.3,6.5,1.05,8.33,6.81s3.31,9.24,4.12,10.56l10.79-.94c-1.06-1.72-3-7.67-4.89-12.86-1.55-4.2-3.61-7.08-7-8.11l0-.2a12.4,12.4,0,0,0,7.21-12.14c-.37-4.28-2.16-7.46-5.19-9.42-3.56-2.35-8.48-3-15.4-2.35a92.63,92.63,0,0,0-13.94,2.19Zm-33.11-17.86,3.58-.32c5.26-.46,9.64,1.05,10,5.69.43,4.89-3.63,7.14-8.4,7.56a31.63,31.63,0,0,1-4.08.2Zm-1.61-18.38a26.64,26.64,0,0,1,4.46-.67c4.77-.42,7.63,1.21,7.94,4.72s-2.39,6-8,6.5l-3.45.3ZM95,288a84.23,84.23,0,0,0,11.47-.31c9.26-.81,14.8-2.83,17.94-5.81a12.53,12.53,0,0,0,4-10.39c-.52-5.95-4.82-9.67-10.25-10.59l0-.14c5.08-2.46,7.16-6.48,6.81-10.56a10.14,10.14,0,0,0-6.34-8.7c-3.63-1.71-7.62-2-14-1.42A92.2,92.2,0,0,0,91,242.18Z"/><path class="cls-1" d="M176.43,439.47q-2.85,2.41-8.22,2.88l-10,.87-2.61-29.85,10.14-.89c3.4-.3,6,.16,7.78,1.36a7,7,0,0,1,3,5.49,6.15,6.15,0,0,1-.88,4.08,8.37,8.37,0,0,1-2.82,2.6,8.62,8.62,0,0,1,4.14,2.12,7,7,0,0,1,1.91,4.59A7.44,7.44,0,0,1,176.43,439.47Zm-7.48-21a4.64,4.64,0,0,0-3.19-.58l-2.64.23.59,6.7,2.46-.21a4.75,4.75,0,0,0,3.08-1.21,3.19,3.19,0,0,0,.86-2.65A3.07,3.07,0,0,0,169,418.43ZM170.42,430a5.63,5.63,0,0,0-3.65-.69l-2.64.23.67,7.71,2.73-.24a5.71,5.71,0,0,0,3.4-1.24,3.32,3.32,0,0,0,1-2.94A3.55,3.55,0,0,0,170.42,430Z"/><path class="cls-1" d="M209.35,430a14.42,14.42,0,0,1-2.45,5.16,12.73,12.73,0,0,1-4.24,3.58,15.17,15.17,0,0,1-5.81,1.64,14.58,14.58,0,0,1-5.92-.62,13,13,0,0,1-4.75-2.76,14.27,14.27,0,0,1-3.3-4.62,18.64,18.64,0,0,1-1.57-6.21,19.11,19.11,0,0,1,.46-6.4,14.67,14.67,0,0,1,2.45-5.16,12.71,12.71,0,0,1,4.22-3.57,16,16,0,0,1,11.77-1A12.71,12.71,0,0,1,205,412.8a14.5,14.5,0,0,1,3.27,4.62,18.41,18.41,0,0,1,1.57,6.21A18.6,18.6,0,0,1,209.35,430ZM200,417.4a6.19,6.19,0,0,0-10.08.88,14.93,14.93,0,0,0,1.24,14.15,6.18,6.18,0,0,0,10.08-.88A14.86,14.86,0,0,0,200,417.4Z"/><path class="cls-1" d="M238.9,435.2l-7.46,1.92-7.45-10-2,.18.89,10.25-7.35.64-2.61-29.85,10.43-.91c3.63-.32,6.52.24,8.67,1.66a8.51,8.51,0,0,1,3.62,6.77,9.08,9.08,0,0,1-1,5.33,9.42,9.42,0,0,1-3.83,3.63Zm-12.07-21.32a5.33,5.33,0,0,0-3.77-.78l-2.38.2.76,8.7,2.3-.2a5.57,5.57,0,0,0,3.6-1.45,4.14,4.14,0,0,0,1-3.41A4,4,0,0,0,226.83,413.88Z"/><path class="cls-1" d="M266.39,424.8a12.93,12.93,0,0,1-2.6,5,13.21,13.21,0,0,1-4.64,3.5,19,19,0,0,1-6.58,1.67l-10.47.91L239.49,406l10.25-.89a19.92,19.92,0,0,1,6.95.48,13.76,13.76,0,0,1,5.22,2.59,12.6,12.6,0,0,1,3.41,4.43,18.8,18.8,0,0,1,1.07,12.16Zm-7.94-9.46a7.67,7.67,0,0,0-2-2.71,6.74,6.74,0,0,0-2.86-1.44,10.71,10.71,0,0,0-3.53-.24l-2.68.23,1.6,18.26,2.68-.24a11,11,0,0,0,3.52-.84,7,7,0,0,0,2.54-1.88,7.26,7.26,0,0,0,1.46-3,12.35,12.35,0,0,0,.25-4.18A11.91,11.91,0,0,0,258.45,415.34Z"/><path class="cls-1" d="M272.6,433.22,270,403.36l18.6-1.62.52,5.92-11.34,1,.48,5.45,8.65-.76,1.49,6-9.61.84.57,6.44,11.72-1,.52,5.93Z"/><path class="cls-1" d="M315.41,429.78l-2.82-6.3-10.25.9-1.54,6.37-7.22.63,8.11-30.92,8.13-.71,12.92,28.16Zm-9.38-22-2.47,10.68,6.75-.59Z"/><path class="cls-1" d="M348.34,420.12a10.5,10.5,0,0,1-2.3,4.08,10.91,10.91,0,0,1-3.78,2.64,16.19,16.19,0,0,1-4.95,1.19,16.59,16.59,0,0,1-5.08-.29,10.05,10.05,0,0,1-7-5.56,14.84,14.84,0,0,1-1.38-5.35l-1.58-18,7.44-.65,1.58,18a7.08,7.08,0,0,0,1.67,4.39,5.33,5.33,0,0,0,7.59-.65,6.92,6.92,0,0,0,.86-4.54l-1.58-18.09,7.45-.64,1.57,18A14.29,14.29,0,0,1,348.34,420.12Z"/><path class="cls-1" d="M350.62,397.27l7.76-1.94.65.92c.4.56.91,1.29,1.54,2.2s1.25,1.79,1.85,2.65l2.2,3.19,4.35-9.58,7.61-.67-7.46,14.86q1.58,2,2.75,3.6c.79,1,1.65,2.16,2.59,3.37l2.58,3.37c.79,1,1.71,2.25,2.76,3.64L372,424.83l-7.06-10-5,10.72-7.57.67,8.1-16Z"/><path class="cls-1" d="M184.76,399.6l-1.42-5.73a28.62,28.62,0,0,1-5,5.1,13,13,0,0,1-7.27,2.74,15.42,15.42,0,0,1-6.47-.76,14,14,0,0,1-5.44-3.55,19.49,19.49,0,0,1-4-6.52,39.55,39.55,0,0,1-1.49-20.7,20.5,20.5,0,0,1,3.53-7.77,16.14,16.14,0,0,1,5.63-4.7,19.25,19.25,0,0,1,7-1.94,32.8,32.8,0,0,1,5.35-.1,21.46,21.46,0,0,1,4.23.72l-1.76-20.07,13.53-3.38,5.74,65.6Zm-4.41-32.66a12.6,12.6,0,0,0-3-.75,19.86,19.86,0,0,0-3.59,0,7.17,7.17,0,0,0-5.52,3.32q-2,3-1.47,9.47c.33,3.82,1.23,6.5,2.68,8.05a6,6,0,0,0,5.11,2.07,6.85,6.85,0,0,0,3.91-1.62,22.64,22.64,0,0,0,3.38-3.59Z"/><path class="cls-1" d="M223.81,366.7a21.34,21.34,0,0,0-5.87,5.1l2.17,24.71-13.72,1.2-3.9-44.52,12-1.05,2.23,8.68a23.62,23.62,0,0,1,4.47-7,12.79,12.79,0,0,1,7.67-3.83l3.5,13.79A24.19,24.19,0,0,0,223.81,366.7Z"/><path class="cls-1" d="M248.83,341.26a8.78,8.78,0,0,1-11.14,1,6.8,6.8,0,0,1-2.73-5.16,6.92,6.92,0,0,1,1.79-5.65,8.79,8.79,0,0,1,11.13-1,7,7,0,0,1,2.7,5.26A6.87,6.87,0,0,1,248.83,341.26Zm-7.91,53.43L237,350.17l13.71-1.2,3.9,44.52Z"/><path class="cls-1" d="M290.34,390.36l-2.44-27.89a6.6,6.6,0,0,0-1.39-3.77,4,4,0,0,0-3.66-1.19,7.63,7.63,0,0,0-3.79,1.43,19.12,19.12,0,0,0-3.46,3.23l2.56,29.26-13.72,1.2-3.89-44.52,12.08-1.06,1.53,6a36.94,36.94,0,0,1,5.88-5.5,14.25,14.25,0,0,1,7.41-2.71q6.27-.55,9.77,2.81t4.07,9.89l2.77,31.62Z"/><path class="cls-1" d="M339.91,386.67l-14.77-20.22L327,387.16l-13.72,1.2-5.55-63.42,13.53-3.38,3.44,39.34L335,341.6l14.72-1.29L337.46,361.8,354,383.42Z"/><path class="cls-1" d="M372.69,382l.14-11-11,3.35s1.17,5.25,1.63,7c.41,1.62,1.51,2.62,3.14,2.3,2.16-.44,6.08-1.64,6.08-1.64"/><polygon class="cls-1" points="369.59 318.91 355.96 321.75 363.46 365.74 369.92 363.89 369.59 318.91"/></g></g></svg>